<svg width="24" height="24" viewBox="0 0 24 24" fill="none" xmlns="http://www.w3.org/2000/svg">
<path d="M12.12 12.7803C12.05 12.7703 11.96 12.7703 11.88 12.7803C10.12 12.7203 8.71997 11.2803 8.71997 9.51029C8.71997 7.70029 10.18 6.23029 12 6.23029C13.81 6.23029 15.28 7.70029 15.28 9.51029C15.27 11.2803 13.88 12.7203 12.12 12.7803Z" stroke="#ADADAC" stroke-width="1.5" stroke-linecap="round" stroke-linejoin="round"/>
<path d="M18.7405 19.3798C16.9605 21.0098 14.6005 21.9998 12.0005 21.9998C9.4005 21.9998 7.0405 21.0098 5.2605 19.3798C5.3605 18.4398 5.9605 17.5198 7.0305 16.7998C9.7705 14.9798 14.2505 14.9798 16.9705 16.7998C18.0405 17.5198 18.6405 18.4398 18.7405 19.3798Z" stroke="#ADADAC" stroke-width="1.5" stroke-linecap="round" stroke-linejoin="round"/>
<path d="M12.0004 21.9998C17.5232 21.9998 22.0004 17.5227 22.0004 11.9998C22.0004 6.47697 17.5232 1.99982 12.0004 1.99982C6.47752 1.99982 2.00037 6.47697 2.00037 11.9998C2.00037 17.5227 6.47752 21.9998 12.0004 21.9998Z" stroke="#ADADAC" stroke-width="1.5" stroke-linecap="round" stroke-linejoin="round"/>
</svg>
