<svg width="28" height="28" viewBox="0 0 28 28" fill="none" xmlns="http://www.w3.org/2000/svg">
<rect width="28" height="28" rx="14" fill="#E9EEEE" fill-opacity="0.2"/>
<path d="M14.0134 7.94C11.8067 7.94 10.0134 9.73334 10.0134 11.94V13.8667C10.0134 14.2733 9.84006 14.8933 9.63339 15.24L8.86673 16.5133C8.39339 17.3 8.72006 18.1733 9.58673 18.4667C12.4601 19.4267 15.5601 19.4267 18.4334 18.4667C19.2401 18.2 19.5934 17.2467 19.1534 16.5133L18.3867 15.24C18.1867 14.8933 18.0134 14.2733 18.0134 13.8667V11.94C18.0134 9.74 16.2134 7.94 14.0134 7.94Z" stroke="white" stroke-width="1.5" stroke-miterlimit="10" stroke-linecap="round"/>
<path d="M15.2467 8.13333C15.04 8.07333 14.8267 8.02667 14.6067 8C13.9667 7.92 13.3534 7.96667 12.78 8.13333C12.9734 7.64 13.4534 7.29333 14.0134 7.29333C14.5734 7.29333 15.0534 7.64 15.2467 8.13333Z" stroke="white" stroke-width="1.5" stroke-miterlimit="10" stroke-linecap="round" stroke-linejoin="round"/>
<path d="M16.0133 18.7067C16.0133 19.8067 15.1133 20.7067 14.0133 20.7067C13.4666 20.7067 12.96 20.48 12.6 20.12C12.24 19.76 12.0133 19.2533 12.0133 18.7067" stroke="white" stroke-width="1.5" stroke-miterlimit="10"/>
</svg>
